# xmcd
#
# Track frame offsets:
#	150
#	15963
#	34581
#	51519
#	66938
#	83940
#	95459
#	102412
#	115501
#	126405
#	135577
#	143923
#
# Disc length: 2158 seconds
#
# Revision: 3
# Processed by: cddbd v1.5.2PL0 Copyright (c) Steve Scherf et al.
# Submitted via: EasyCDDAExtractor 12.0.4.1
#
DISCID=a1086c0c
DTITLE=Various Artist - THAT SOUNDS GOOD
DYEAR=1900
DGENRE=Blues
TTITLE0=อัมรินทร์ นิติพน - เรา สองสาม คน คนล่าฝัน
TTITLE1=อัสนี และ วสันต์ โชติกุล - เรา สองสาม คน
TTITLE2=Y not 7 - เรา สองสาม คน คนล่าฝัน
TTITLE3=Blackhead - เรา สองสาม คน เพราะเรานั้นคู่กัน
TTITLE4=Blackhead - เรา สองสาม คน I LOVE YOU
TTITLE5=Prah jao jord - เรา สองสาม คน I LOVE YOU
TTITLE6=เพลงเวป - เพลงเวป
TTITLE7=INTERVIEW - INTERVIEW
TTITLE8=เสียงในใจ - เสียงในใจ
TTITLE9=ปู Blackhead - เรา สองสาม คน เพราะเรานั้นคู่กัน
TTITLE10=ค้างคาวกินมะนาว - ค้างคาวกินมะนาว
TTITLE11=I LOVE YOU - เรา สองสาม คน I LOVE YOU
EXTD=
EXTT0=
EXTT1=
EXTT2=
EXTT3=
EXTT4=
EXTT5=
EXTT6=
EXTT7=
EXTT8=
EXTT9=
EXTT10=
EXTT11=
PLAYORDER=
